<?xml version="1.0" encoding="UTF-8"?>
<!-- Created with Inkscape (http://www.inkscape.org/) -->
<svg id="svg1" width="512" height="512" version="1.1" viewBox="0 0 512 512" xml:space="preserve" xmlns="http://www.w3.org/2000/svg" xmlns:xlink="http://www.w3.org/1999/xlink"><defs id="defs1"><filter id="filter126" x="0" y="0" width="1.0142" height="1.0464" color-interpolation-filters="sRGB"><feFlood id="feFlood125" flood-color="rgb(0,0,0)" in="SourceGraphic" result="flood"/><feGaussianBlur id="feGaussianBlur125" in="SourceGraphic" result="blur" stdDeviation="0.000000"/><feOffset id="feOffset125" dx="6.000000" dy="6.000000" in="blur" result="offset"/><feComposite id="feComposite125" in="flood" in2="offset" operator="in" result="comp1"/><feComposite id="feComposite126" in="SourceGraphic" in2="comp1" result="comp2"/></filter><radialGradient id="radialGradient14" cx="256" cy="256" r="256" gradientUnits="userSpaceOnUse"><stop id="stop13" stop-opacity="0" offset="0"/><stop id="stop14" offset="1"/></radialGradient><mask id="mask23"><circle id="circle23" cx="1905.4" cy="1905" r="1905.4" fill="#fff" stroke-width="37.479"/></mask></defs><g id="g1" transform="matrix(.13436 0 0 .13436 0 .049896)" mask="url(#mask23)"><path id="path1" d="m0 0h6e3v3810h-6e3z" fill="#750787"/><path id="path2-3" d="m0 0h6e3v3175h-6e3z" fill="#004dff"/><path id="path3-6" d="m0 0h6e3v2540h-6e3z" fill="#008026"/><path id="path4-7" d="m0 0h6e3v1905h-6e3z" fill="#ffed00"/><path id="path5-5" d="m0 0h6e3v1270h-6e3z" fill="#ff8c00"/><path id="path6-3" d="m0 0h6e3v635h-6e3z" fill="#e40303"/><path id="path7-5" d="M 0,-960.5 2864,1905 0,4770.5 Z"/><path id="path8-6" d="m0-480 2384 2385-2384 2385z" fill="#613915"/><path id="path9-2" d="m0 3810v-3810l1912 1905z" fill="#74d7ee"/><path id="path10-9" d="m0 3330v-2850l1420 1425z" fill="#ffafc8"/><path id="path11-1" d="m0 960 951 945-951 945z" fill="#fff"/></g><circle id="path13-6" cx="256" cy="256" r="256" fill="url(#radialGradient14)" stroke-width="5.0356"/><text id="text81" x="35.126282" y="315.19662" fill="#ffffff" fill-opacity=".97" filter="url(#filter126)" font-family="'Liberation Sans'" font-size="176px" font-style="italic" stroke-width="3.7795" style="line-height:0.8" xml:space="preserve"><tspan id="tspan81" x="35.126282" y="315.19662">fnord.</tspan></text></svg>
