<svg xmlns="http://www.w3.org/2000/svg" xmlns:xlink="http://www.w3.org/1999/xlink" xml:space="preserve" width="512" height="512" viewBox="0 0 512 512"><g clip-path="url(#a)" style="display:inline" transform="translate(0 .05)scale(.13436)"><path fill="#750787" d="M0 0h6000v3810H0Z"/><path fill="#004dff" d="M0 0h6000v3175H0Z"/><path fill="#008026" d="M0 0h6000v2540H0Z"/><path fill="#ffed00" d="M0 0h6000v1905H0Z"/><path fill="#ff8c00" d="M0 0h6000v1270H0Z"/><path fill="#e40303" d="M0 0h6000v635H0Z"/><path d="M0-960.5 2864 1905 0 4770.5Z"/><path fill="#613915" d="m0-480 2384 2385L0 4290Z"/><path fill="#74d7ee" d="M0 3810V0l1912 1905z"/><path fill="#ffafc8" d="M0 3330V480l1420 1425z"/><path fill="#fff" d="m0 960 951 945L0 2850Z"/><path d="M0 0h512v512H0z" style="display:inline;fill:url(#b);stroke:none;stroke-width:2.79847;stroke-dasharray:none;stroke-opacity:1" transform="translate(0 -.371)scale(7.44286)"/></g><defs><radialGradient xlink:href="#c" id="b" cx="72.817" cy="117.72" r="90.616" fx="72.817" fy="117.72" gradientTransform="translate(50.286 -76.571)scale(2.8251)" gradientUnits="userSpaceOnUse"/><linearGradient id="c"><stop offset="0" style="stop-color:#000;stop-opacity:0"/><stop offset="1" style="stop-color:#000;stop-opacity:.75"/></linearGradient><clipPath id="a" clipPathUnits="userSpaceOnUse"><circle cx="1905.371" cy="1905" r="1845.829" style="fill:#fff;fill-opacity:1;stroke-width:8.32342"/></clipPath><filter id="d" width="1.017" height="1.057" x="0" y="0" style="color-interpolation-filters:sRGB"><feFlood flood-color="#000" flood-opacity="1" result="flood"/><feGaussianBlur in="SourceGraphic" result="blur"/><feOffset dx="6" dy="6" in="blur" result="offset"/><feComposite in="flood" in2="offset" operator="in" result="comp1"/><feComposite in="SourceGraphic" in2="comp1" result="comp2"/></filter></defs><text xml:space="preserve" x="78.285" y="307.434" style="font-style:italic;font-variant:normal;font-weight:400;font-stretch:normal;font-size:144px;line-height:.8;font-family:&quot;Liberation Sans&quot;;-inkscape-font-specification:&quot;Liberation Sans Italic&quot;;text-align:start;writing-mode:lr-tb;direction:ltr;text-anchor:start;fill:#fff;fill-opacity:.97;stroke:none;stroke-width:3.77953;stroke-linecap:butt;stroke-linejoin:miter;stroke-miterlimit:4;stroke-dasharray:none;stroke-dashoffset:0;stroke-opacity:1;filter:url(#d)"><tspan x="78.285" y="307.434">fnord.</tspan></text></svg>