<svg xmlns="http://www.w3.org/2000/svg" xmlns:xlink="http://www.w3.org/1999/xlink" xml:space="preserve" width="512" height="512" viewBox="0 0 512 512"><defs><pattern xlink:href="#a" id="c" preserveAspectRatio="xMidYMid"/><pattern id="a" width="806.142" height="770" patternTransform="translate(0 -129)" patternUnits="userSpaceOnUse" preserveAspectRatio="xMidYMid"><path fill="#750787" d="M0 129.05h806.142v511.9H0Z" style="stroke-width:.134357"/><path fill="#004dff" d="M0 129.05h806.142v426.583H0Z" style="stroke-width:.134357"/><path fill="#008026" d="M0 129.05h806.142v341.267H0Z" style="stroke-width:.134357"/><path fill="#ffed00" d="M0 129.05h806.142V385H0Z" style="stroke-width:.134357"/><path fill="#ff8c00" d="M0 129.05h806.142v170.633H0Z" style="stroke-width:.134357"/><path fill="#e40303" d="M0 129.05h806.142v85.317H0Z" style="stroke-width:.134357"/><path d="m0 0 384.798 385L0 770Z" style="stroke-width:.134357"/><path fill="#613915" d="M0 64.559 320.307 385 0 705.441Z" style="stroke-width:.134357"/><path fill="#74d7ee" d="M0 640.95v-511.9L256.89 385z" style="stroke-width:.134357"/><path fill="#ffafc8" d="M0 576.459V193.54L190.787 385z" style="stroke-width:.134357"/><path fill="#fff" d="M0 258.033 127.774 385 0 511.967Z" style="stroke-width:.134357"/></pattern><pattern id="e" width="806.142" height="770" patternTransform="translate(0 -129)" patternUnits="userSpaceOnUse" preserveAspectRatio="xMidYMid"><path d="M0 0h806.142v770H0z" style="fill:url(#c);stroke:none"/><path d="M0 129h512v512H0z" style="display:inline;fill:url(#d);stroke:none;stroke-width:2.79847;stroke-dasharray:none;stroke-opacity:1"/></pattern><radialGradient xlink:href="#b" id="d" cx="72.817" cy="117.72" r="90.616" fx="72.817" fy="117.72" gradientTransform="translate(50.286 52.429)scale(2.8251)" gradientUnits="userSpaceOnUse"/><linearGradient id="b"><stop offset="0" style="stop-color:#000;stop-opacity:0"/><stop offset="1" style="stop-color:#000;stop-opacity:.75"/></linearGradient><filter id="f" width="1.017" height="1.057" x="0" y="0" style="color-interpolation-filters:sRGB"><feFlood flood-color="#000" flood-opacity="1" result="flood"/><feGaussianBlur in="SourceGraphic" result="blur"/><feOffset dx="6" dy="6" in="blur" result="offset"/><feComposite in="flood" in2="offset" operator="in" result="comp1"/><feComposite in="SourceGraphic" in2="comp1" result="comp2"/></filter></defs><path d="M256 8A248 248 0 0 0 8 256a248 248 0 0 0 248 248 248 248 0 0 0 248-248A248 248 0 0 0 256 8" style="display:inline;stroke:none;fill:url(#e)"/><text xml:space="preserve" x="78.285" y="307.434" style="font-style:italic;font-variant:normal;font-weight:400;font-stretch:normal;font-size:144px;line-height:.8;font-family:&quot;Liberation Sans&quot;;-inkscape-font-specification:&quot;Liberation Sans Italic&quot;;text-align:start;writing-mode:lr-tb;direction:ltr;text-anchor:start;fill:#fff;fill-opacity:.97;stroke:none;stroke-width:3.77953;stroke-linecap:butt;stroke-linejoin:miter;stroke-miterlimit:4;stroke-dasharray:none;stroke-dashoffset:0;stroke-opacity:1;filter:url(#f)"><tspan x="78.285" y="307.434">fnord.</tspan></text></svg>