<?xml version="1.0" encoding="UTF-8" standalone="no"?>
<!-- Created with Inkscape (http://www.inkscape.org/) -->

<svg
   id="svg1"
   width="512"
   height="512"
   version="1.1"
   viewBox="0 0 512 512"
   xml:space="preserve"
   sodipodi:docname="xyz.fnordmc.FnordLauncher.svg"
   inkscape:version="1.4.3 (0d15f75042, 2025-12-25)"
   xmlns:inkscape="http://www.inkscape.org/namespaces/inkscape"
   xmlns:sodipodi="http://sodipodi.sourceforge.net/DTD/sodipodi-0.dtd"
   xmlns="http://www.w3.org/2000/svg"
   xmlns:svg="http://www.w3.org/2000/svg"><sodipodi:namedview
     id="namedview1"
     pagecolor="#505050"
     bordercolor="#eeeeee"
     borderopacity="1"
     inkscape:showpageshadow="0"
     inkscape:pageopacity="0"
     inkscape:pagecheckerboard="0"
     inkscape:deskcolor="#505050"
     inkscape:zoom="2.4902344"
     inkscape:cx="255.79922"
     inkscape:cy="256"
     inkscape:window-width="2560"
     inkscape:window-height="1538"
     inkscape:window-x="0"
     inkscape:window-y="0"
     inkscape:window-maximized="1"
     inkscape:current-layer="svg1" /><defs
     id="defs1"><filter
       id="filter126"
       x="0"
       y="0"
       width="1.0141993"
       height="1.0463908"
       color-interpolation-filters="sRGB"><feFlood
         id="feFlood125"
         flood-color="rgb(0,0,0)"
         in="SourceGraphic"
         result="flood" /><feGaussianBlur
         id="feGaussianBlur125"
         in="SourceGraphic"
         result="blur"
         stdDeviation="0.000000" /><feOffset
         id="feOffset125"
         dx="6.000000"
         dy="6.000000"
         in="blur"
         result="offset" /><feComposite
         id="feComposite125"
         in="flood"
         in2="offset"
         operator="in"
         result="comp1" /><feComposite
         id="feComposite126"
         in="SourceGraphic"
         in2="comp1"
         result="comp2" /></filter><radialGradient
       id="radialGradient14"
       cx="256"
       cy="256"
       r="256"
       gradientUnits="userSpaceOnUse"><stop
         id="stop13"
         stop-opacity="0"
         offset="0" /><stop
         id="stop14"
         offset="1" /></radialGradient><mask
       id="mask23"><circle
         id="circle23"
         cx="1905.4"
         cy="1905"
         r="1905.4"
         fill="#fff"
         stroke-width="37.479" /></mask></defs><g
     id="g1"
     transform="matrix(.13436 0 0 .13436 0 .049896)"
     mask="url(#mask23)"><path
       id="path1"
       d="m0 0h6e3v3810h-6e3z"
       fill="#750787" /><path
       id="path2-3"
       d="m0 0h6e3v3175h-6e3z"
       fill="#004dff" /><path
       id="path3-6"
       d="m0 0h6e3v2540h-6e3z"
       fill="#008026" /><path
       id="path4-7"
       d="m0 0h6e3v1905h-6e3z"
       fill="#ffed00" /><path
       id="path5-5"
       d="m0 0h6e3v1270h-6e3z"
       fill="#ff8c00" /><path
       id="path6-3"
       d="m0 0h6e3v635h-6e3z"
       fill="#e40303" /><path
       id="path7-5"
       d="M 0,-960.5 2864,1905 0,4770.5 Z" /><path
       id="path8-6"
       d="m0-480 2384 2385-2384 2385z"
       fill="#613915" /><path
       id="path9-2"
       d="m0 3810v-3810l1912 1905z"
       fill="#74d7ee" /><path
       id="path10-9"
       d="m0 3330v-2850l1420 1425z"
       fill="#ffafc8" /><path
       id="path11-1"
       d="m0 960 951 945-951 945z"
       fill="#fff" /></g><circle
     id="path13-6"
     cx="256"
     cy="256"
     r="256"
     fill="url(#radialGradient14)"
     stroke-width="5.0356" /><path
     d="m 72.423157,233.47006 -15.898438,81.72656 h -15.46875 l 15.898438,-81.72656 h -13.0625 l 2.234375,-11.25781 h 13.0625 l 1.976562,-10.48438 q 1.976563,-9.625 5.15625,-14.35156 3.265625,-4.8125 8.59375,-7.21875 5.328125,-2.49219 13.664063,-2.49219 6.359375,0 10.65625,1.03125 l -2.234375,11.77344 -3.867188,-0.51562 -3.953125,-0.17188 q -5.414062,0 -8.335937,2.83594 -2.835938,2.75 -4.554688,11.25781 l -1.632812,8.33594 h 18.132812 l -2.234375,11.25781 z m 73.218753,81.72656 10.82812,-55.42968 q 1.54688,-7.5625 1.54688,-12.89063 0,-14.35156 -15.38282,-14.35156 -10.82812,0 -19.07812,8.25 -8.25,8.25 -11,22.34375 l -10.14063,52.07812 H 86.946594 l 14.265626,-73.13281 q 1.71875,-8.16406 3.35156,-19.85156 h 14.60938 q 0,0.94531 -0.94532,6.70312 -0.85937,5.67188 -1.46093,9.19532 h 0.25781 q 7.13281,-9.88282 14.26562,-13.66407 7.21875,-3.86718 17.10157,-3.86718 12.71875,0 19.07812,6.27343 6.44531,6.27344 6.44531,18.13282 0,5.5 -1.80468,14.09375 l -10.91407,56.11718 z m 128.5625,-58.69531 q 0,11.17188 -3.4375,23.28906 -3.4375,12.03125 -9.88282,20.45313 -6.35937,8.33594 -15.64062,12.54687 -9.28125,4.125 -21.14063,4.125 -16.84375,0 -26.64062,-10.14062 -9.79688,-10.14063 -9.79688,-27.58594 0.34375,-17.53125 6.35938,-31.10937 6.01562,-13.57813 16.67187,-20.53907 10.65625,-6.96093 26.38282,-6.96093 18.04687,0 27.58593,9.45312 9.53907,9.36719 9.53907,26.46875 z m -15.98438,0 q 0,-24.57812 -21.3125,-24.57812 -11.60156,0 -18.64844,6.01562 -6.96093,5.92969 -10.82812,18.04688 -3.86719,12.11718 -3.86719,23.46093 0,12.71875 5.5,19.42188 5.5,6.61719 15.98438,6.61719 8.85156,0 14.17968,-2.92188 5.41407,-3.00781 9.45313,-9.28125 4.03906,-6.35937 6.53125,-16.15625 2.57812,-9.79687 3.00781,-20.625 z m 83.27344,-21.91406 q -3.78125,-1.11719 -7.73438,-1.11719 -9.02343,0 -16.32812,9.45313 -7.21875,9.45312 -9.79688,23.80468 l -9.45312,48.46875 h -15.46875 l 13.92187,-71.32812 2.14844,-11.85938 1.54688,-9.79687 h 14.60937 l -3.00781,18.99219 h 0.34375 q 5.67187,-11.42969 11.17187,-16.07032 5.5,-4.64062 12.71875,-4.64062 3.95313,0 8.16407,1.20312 z m 31.36719,82.41406 q -13.49219,0 -21.05469,-8.07812 -7.47656,-8.16407 -7.47656,-22.34375 0,-17.44532 5.24218,-33.77344 5.32813,-16.41406 14.86719,-24.32031 9.625,-7.90625 24.49219,-7.90625 10.57031,0 17.1875,4.46875 6.70312,4.46875 9.45312,12.54687 h 0.42969 l 2.40625,-13.92187 7.04688,-36.00782 h 15.46875 l -21.05469,108.36719 q -2.49219,12.11719 -3.26563,19.16406 h -14.78125 q 0,-4.38281 1.80469,-13.75 h -0.42969 q -6.27343,8.16407 -13.23437,11.85938 -6.96094,3.69531 -17.10156,3.69531 z m 4.46875,-11.94531 q 8.50781,0 14.52343,-3.4375 6.10157,-3.52344 10.3125,-10.48438 4.21094,-7.04687 6.61719,-17.53125 2.40625,-10.57031 2.40625,-18.90625 0,-10.74218 -5.5,-16.67187 -5.41406,-6.01563 -15.125,-6.01563 -10.48437,0 -16.58594,6.27344 -6.10156,6.1875 -9.79687,20.36719 -3.69531,14.09375 -3.69531,25.17969 0,10.57031 4.03906,15.89843 4.03906,5.32813 12.80469,5.32813 z m 65.82812,10.14062 3.69531,-18.82031 h 16.75782 l -3.69532,18.82031 z"
     id="text81"
     style="font-style:italic;font-size:176px;line-height:0.8;font-family:'Liberation Sans';fill:#ffffff;fill-opacity:0.97;stroke-width:3.7795;filter:url(#filter126)"
     aria-label="fnord." /></svg>
