<?xml version="1.0" encoding="UTF-8" standalone="no"?>
<svg
   xml:space="preserve"
   width="1024"
   height="1024"
   viewBox="0 0 270.933 270.933"
   version="1.1"
   id="svg13"
   sodipodi:docname="org.unmojang.FjordLauncher.svg"
   inkscape:version="1.4.3 (0d15f75, 2025-12-25)"
   xmlns:inkscape="http://www.inkscape.org/namespaces/inkscape"
   xmlns:sodipodi="http://sodipodi.sourceforge.net/DTD/sodipodi-0.dtd"
   xmlns:xlink="http://www.w3.org/1999/xlink"
   xmlns="http://www.w3.org/2000/svg"
   xmlns:svg="http://www.w3.org/2000/svg"><sodipodi:namedview
     id="namedview13"
     pagecolor="#ffffff"
     bordercolor="#000000"
     borderopacity="0.25"
     inkscape:showpageshadow="2"
     inkscape:pageopacity="0.0"
     inkscape:pagecheckerboard="0"
     inkscape:deskcolor="#d1d1d1"
     inkscape:zoom="0.76464844"
     inkscape:cx="512"
     inkscape:cy="512"
     inkscape:window-width="1024"
     inkscape:window-height="932"
     inkscape:window-x="0"
     inkscape:window-y="30"
     inkscape:window-maximized="0"
     inkscape:current-layer="svg13" /><defs
     id="defs8"><linearGradient
       id="c"><stop
         offset=".137"
         style="stop-color:#00b9e7;stop-opacity:1"
         id="stop1" /><stop
         offset="1"
         style="stop-color:#146e8b;stop-opacity:1"
         id="stop2" /></linearGradient><linearGradient
       id="a"><stop
         offset="0"
         style="stop-color:#094a29;stop-opacity:1"
         id="stop3" /><stop
         offset="1"
         style="stop-color:#137a4a;stop-opacity:1"
         id="stop4" /></linearGradient><linearGradient
       id="b"><stop
         offset=".542"
         style="stop-color:#094a29;stop-opacity:1"
         id="stop5" /><stop
         offset=".983"
         style="stop-color:#137a4a;stop-opacity:1"
         id="stop6" /></linearGradient><linearGradient
       xlink:href="#a"
       id="j"
       x1="46.747"
       x2="23.308"
       y1="201.24"
       y2="64.527"
       gradientUnits="userSpaceOnUse" /><linearGradient
       xlink:href="#c"
       id="h"
       x1="106.92"
       x2="134.959"
       y1="252.247"
       y2="135.695"
       gradientUnits="userSpaceOnUse" /><linearGradient
       xlink:href="#e"
       id="i"
       x1="192.825"
       x2="60.807"
       y1="186.664"
       y2="49.446"
       gradientUnits="userSpaceOnUse" /><linearGradient
       id="e"><stop
         offset=".137"
         style="stop-color:#d7eef4;stop-opacity:0"
         id="stop7" /><stop
         offset="1"
         style="stop-color:#d7eef4;stop-opacity:.32810229"
         id="stop8" /></linearGradient><radialGradient
       xlink:href="#b"
       id="g"
       cx="149.527"
       cy="185.53"
       r="112.94"
       fx="149.527"
       fy="185.53"
       gradientTransform="matrix(-1.37511,-0.28998,0.19049,-0.9033,299.04,358.867)"
       gradientUnits="userSpaceOnUse" /><clipPath
       id="f"
       clipPathUnits="userSpaceOnUse"><path
         id="use8"
         d="m 34.639,64.554 89.829,-51.862 a 22,22 0 0 1 21.997,0 l 89.829,51.862 a 22,22 0 0 1 10.998,19.05 V 187.33 a 22,22 0 0 1 -10.998,19.05 l -89.829,51.862 a 22,22 0 0 1 -21.997,0 L 34.639,206.38 A 22,22 0 0 1 23.641,187.33 V 83.603 a 22,22 0 0 1 10.998,-19.05"
         style="fill:none;stroke:none;stroke-width:0.265;stroke-linecap:butt;stroke-linejoin:miter;stroke-dasharray:none;stroke-opacity:1" /></clipPath></defs><g
     clip-path="url(#f)"
     transform="matrix(1.07041,0,0,1.07041,2.2266513,4.6487854)"
     id="g13"><path
       d="m 135.062,62.147 c -4.676,0.06 -7.359,0.636 -12.462,2.676 -8.866,3.542 -16.94,11.913 -21.572,22.364 -3.448,7.78 -5.294,17.067 -5.247,26.41 l 0.009,1.859 c 0.724,8.282 1.92,16.141 4.202,23.193 0.02,-0.014 0,0 0,0 0.013,0.013 0.217,0.578 0.453,1.254 3.183,9.115 8.665,18.87 14.84,26.511 6.889,-3.545 13.096,-7.523 17.975,-12.475 -3.663,-4.337 -7.363,-10.122 -9.855,-15.495 -1.334,-2.878 -3.276,-7.963 -3.42,-8.958 0,-0.009 -0.005,0.01 0,0 -2.16,-7.453 -2.715,-15.18 -2.076,-22.053 l 0.009,-0.049 c -0.01,-0.1 0.165,-0.986 0.322,-1.922 1.46,-8.71 5.016,-15.308 10.357,-19.224 1.096,-0.803 3.406,-1.808 4.974,-2.163 0.397,-0.09 1.24,-0.135 2.084,-0.135 0.844,0 1.689,0.045 2.089,0.135 1.637,0.368 3.853,1.333 5.02,2.186 4.916,3.596 8.431,9.765 9.987,17.4 8.133,1.569 15.982,4.38 22.781,7.816 -0.085,-2.42 -0.309,-5.289 -0.608,-7.432 -1.623,-11.596 -5.62,-21.183 -11.862,-28.442 -4.654,-5.412 -9.5,-8.963 -15.167,-11.111 -5.025,-1.906 -7.786,-2.41 -12.834,-2.345 z m -0.36,43.64 c -4.642,0.045 -9.009,0.406 -13.298,1.092 -0.307,7.74 0.095,15.1 1.993,21.786 a 70.3,70.3 0 0 1 12.007,-1.077 70,70 0 0 1 12,0.991 c 1.972,0.337 3.965,0.767 3.938,0.849 l -0.021,0.07 c 7.48,1.872 14.386,5.216 19.98,9.19 l -0.007,0.049 c 0.044,-0.103 0.073,-0.135 0.104,-0.108 0.034,0.03 0.347,0.276 0.695,0.549 7.034,5.508 11.231,11.883 12.246,18.602 0.287,1.901 -0.05,4.98 -0.713,6.492 -1.05,2.397 -2.336,3.905 -4.716,5.534 -1.94,1.327 -5.067,2.301 -8.475,2.64 -3.536,0.351 -7.702,-0.138 -11.922,-1.4 a 42,42 0 0 1 -1.215,-0.386 c -5.428,6.253 -11.803,11.64 -18.207,15.816 2.652,1.422 5.778,2.861 8.488,3.872 6.636,2.475 12.356,3.71 18.46,3.987 9.947,0.45 20.45,-2.558 26.786,-7.671 3.314,-2.675 4.477,-3.776 6.062,-5.743 1.11,-1.377 1.625,-2.17 3.42,-5.272 2.001,-3.455 3.304,-7.891 3.819,-13.005 0.45,-4.465 -0.03,-8.857 -1.517,-13.893 -0.257,-0.87 -0.476,-1.617 -0.487,-1.658 -0.24,-0.92 -1.547,-4.102 -2.37,-5.775 -3.917,-7.948 -10.725,-15.6 -19.146,-21.514 -2.03,-1.427 -4.743,-3.103 -9.683,-5.54 -4.94,-2.438 -12.332,-5.288 -15.963,-6.024 -3.63,-0.737 -3.904,-0.795 -4.221,-0.864 -3.457,-0.75 -9.286,-1.407 -13.692,-1.542 a 111,111 0 0 0 -4.346,-0.047 z M 92.344,117.44 c -7.068,4.328 -13.695,10.264 -18.182,16.353 -6.817,9.252 -10.115,20.352 -8.855,29.804 0.828,6.21 2.119,9.775 5.403,14.915 2.988,4.674 8.356,9.267 13.88,11.874 4.83,2.28 11.25,3.776 16.998,3.96 10.68,0.343 22.876,-3.073 33.083,-9.264 l 0.975,-0.591 c 0.002,0 0.043,0.025 0.052,0.028 6.856,-4.73 13.05,-9.698 18.043,-15.19 l -0.112,-0.05 0.273,-0.307 c 6.448,-7.28 12.623,-17.605 16.202,-26.933 -6.542,-4.152 -13.112,-7.503 -19.847,-9.225 -2.792,7.846 -8.025,16.626 -13.69,22.81 -0.301,0.328 -0.63,0.677 -0.732,0.776 l -2.913,2.976 c -2.728,2.797 -8.986,7.078 -15.24,9.906 0.014,0.018 0,-0.003 0,0 0,0.026 -0.779,0.343 -1.825,0.742 -3.52,1.34 -7.442,2.237 -10.748,2.457 -3.95,0.262 -7.635,-0.305 -10.89,-1.676 -1.361,-0.574 -2.79,-1.578 -4.212,-2.96 -0.803,-0.782 -1.785,-2.315 -2.368,-3.7 -0.47,-1.12 -0.893,-4.096 -0.767,-5.41 0.602,-6.268 4.073,-12.298 10.161,-17.693 -2.727,-7.808 -4.24,-15.998 -4.689,-23.602"
       style="display:inline;mix-blend-mode:normal;fill:#ffffff;stroke-width:0.0372549"
       id="path11" /></g></svg>
